<?xml version="1.0" encoding="utf-8"?>
<!-- Generator: Adobe Illustrator 25.0.1, SVG Export Plug-In . SVG Version: 6.00 Build 0)  -->
<svg version="1.1" id="Layer_1" xmlns="http://www.w3.org/2000/svg" xmlns:xlink="http://www.w3.org/1999/xlink" x="0px" y="0px"
	 viewBox="0 0 512 512" style="enable-background:new 0 0 512 512;" xml:space="preserve">
<style type="text/css">
	.st0{fill:none;stroke:#000000;stroke-width:22;stroke-linecap:square;stroke-miterlimit:10;}
	.st1{stroke:#000000;stroke-width:32;stroke-linecap:square;stroke-miterlimit:10;}
	.st2{fill:none;stroke:#000000;stroke-width:32;stroke-linecap:round;stroke-miterlimit:10;}
</style>
<path class="st0" d="M84.2,151.6h295.6c24.2,0,43.8,18.9,43.8,42.2v122.3c0,23.3-19.6,42.2-43.8,42.2H84.2
	c-24.2,0-43.8-18.9-43.8-42.2V193.8C40.4,170.5,60,151.6,84.2,151.6z"/>
<path class="st1" d="M81.5,195.6h301c2.3,0,4.2,1.9,4.2,4.2v112.3c0,2.3-1.9,4.2-4.2,4.2h-301c-2.3,0-4.2-1.9-4.2-4.2V199.9
	C77.3,197.5,79.1,195.6,81.5,195.6z"/>
<line class="st2" x1="465" y1="204.9" x2="465" y2="306.3"/>
</svg>
