<?xml version="1.0" encoding="utf-8"?>
<!-- Generator: Adobe Illustrator 25.0.1, SVG Export Plug-In . SVG Version: 6.00 Build 0)  -->
<svg version="1.1" id="Capa_1" xmlns="http://www.w3.org/2000/svg" xmlns:xlink="http://www.w3.org/1999/xlink" x="0px" y="0px"
	 viewBox="0 0 30.4 18.2" style="enable-background:new 0 0 30.4 18.2;" xml:space="preserve">
<g>
	<g>
		<path d="M4.8,6.6H3.5c-1.1,0-2.1,0.7-2.1,1.5v8.3c0,0.2,0.3,0.4,0.6,0.4h4.3c0.3,0,0.6-0.2,0.6-0.4V8.1C6.8,7.3,5.9,6.6,4.8,6.6z"
			/>
		<path d="M8.9,6.4v10c0,0.2,0.3,0.4,0.6,0.4h4.3c0.3,0,0.6-0.2,0.6-0.4v-10c0-0.8-0.9-1.5-2.1-1.5h-1.3C9.8,4.9,8.9,5.6,8.9,6.4z"
			/>
		<path d="M18.4,2.9c-1.1,0-2.1,0.7-2.1,1.5v12c0,0.2,0.3,0.4,0.6,0.4h4.3c0.3,0,0.6-0.2,0.6-0.4V4.5c0-0.8-0.9-1.5-2.1-1.5
			L18.4,2.9L18.4,2.9z"/>
		<path d="M25.9,1.5c-1.1,0-2.1,0.7-2.1,1.5v13.4c0,0.2,0.3,0.4,0.6,0.4h4.3c0.3,0,0.6-0.2,0.6-0.4V3c0-0.8-0.9-1.5-2.1-1.5
			L25.9,1.5L25.9,1.5z"/>
	</g>
</g>
</svg>
