<?xml version="1.0" encoding="utf-8"?>
<!-- Generator: Adobe Illustrator 25.0.1, SVG Export Plug-In . SVG Version: 6.00 Build 0)  -->
<svg version="1.1" id="_15_-_Email" xmlns="http://www.w3.org/2000/svg" xmlns:xlink="http://www.w3.org/1999/xlink" x="0px"
	 y="0px" viewBox="0 0 30 30" style="enable-background:new 0 0 30 30;" xml:space="preserve">
<style type="text/css">
	.st0{fill-rule:evenodd;clip-rule:evenodd;}
</style>
<path id="Path_243" class="st0" d="M29.3,7.6c0-1.6-1.3-2.9-2.9-2.9H3.6C2,4.7,0.7,6,0.7,7.6v14.9c0,1.6,1.3,2.9,2.9,2.9h22.9
	c1.6,0,2.9-1.3,2.9-2.9C29.3,22.4,29.3,7.6,29.3,7.6z M27.4,7.6v14.9c0,0.5-0.4,1-1,1H3.6c-0.5,0-1-0.4-1-1V7.6c0-0.5,0.4-1,1-1
	h22.9C27,6.6,27.4,7.1,27.4,7.6z"/>
<path id="Path_244" class="st0" d="M1.9,7.5l12.6,7c0.3,0.2,0.7,0.2,1,0l12.6-7c0.5-0.3,0.7-0.9,0.4-1.4s-0.9-0.7-1.4-0.4
	c0,0,0,0,0,0L15,12.5L2.9,5.7C2.4,5.5,1.8,5.6,1.5,6.1S1.4,7.2,1.9,7.5z"/>
</svg>
