<?xml version="1.0" encoding="utf-8"?>
<!-- Generator: Adobe Illustrator 25.0.1, SVG Export Plug-In . SVG Version: 6.00 Build 0)  -->
<svg version="1.1" id="Layer_1" xmlns="http://www.w3.org/2000/svg" xmlns:xlink="http://www.w3.org/1999/xlink" x="0px" y="0px"
	 viewBox="0 0 24 24.4" style="enable-background:new 0 0 24 24.4;" xml:space="preserve">
<style type="text/css">
	.st0{fill-rule:evenodd;clip-rule:evenodd;}
</style>
<path class="st0" d="M12,2.4c-3.9,0-7,3.1-7,7c0,1.8,0.7,3.5,1.9,4.8c1.3,1.4,3.1,2.2,5.1,2.2c2,0,3.8-0.9,5.1-2.2
	c1.2-1.3,1.9-2.9,1.9-4.8C19,5.5,15.9,2.4,12,2.4z M3,9.4c0-5,4-9,9-9c5,0,9,4,9,9c0,2.2-0.8,4.2-2.1,5.7l1.6,6.6
	c0.4,1.6-1.2,3-2.7,2.3L12,21.5L6.2,24c-1.5,0.7-3.1-0.7-2.7-2.3l1.6-6.6C3.8,13.5,3,11.5,3,9.4z M6.7,16.7l-1.3,5.5l5.8-2.5
	c0.5-0.2,1.1-0.2,1.6,0l5.8,2.5l-1.3-5.5c-1.5,1.1-3.3,1.7-5.3,1.7S8.2,17.7,6.7,16.7z"/>
</svg>
