<?xml version="1.0" encoding="utf-8"?>
<!-- Generator: Adobe Illustrator 25.0.1, SVG Export Plug-In . SVG Version: 6.00 Build 0)  -->
<svg version="1.1" id="Capa_1" xmlns="http://www.w3.org/2000/svg" xmlns:xlink="http://www.w3.org/1999/xlink" x="0px" y="0px"
	 viewBox="0 0 30 30" style="enable-background:new 0 0 30 30;" xml:space="preserve">
<g>
	<g>
		<path d="M24.9,12.6V11c0-1.3-0.3-2.6-0.8-3.8C23.6,6,22.9,4.9,22,4s-2-1.6-3.1-2.1c-1.2-0.5-2.5-0.8-3.8-0.8s-2.6,0.3-3.8,0.8
			C10,2.4,9,3.1,8.1,4C7.2,4.9,6.5,6,6,7.1C5.5,8.4,5.2,9.6,5.2,11v1.6c-1.4,0.1-2.5,1.3-2.5,2.8v10.7c0,1.6,1.3,2.8,2.8,2.8h19.1
			c1.6,0,2.8-1.3,2.8-2.8V15.4C27.4,14,26.3,12.8,24.9,12.6z M4.7,26.1V15.4c0-0.3,0.2-0.6,0.5-0.7c0.1,0,0.2-0.1,0.3-0.1h0.8h1
			h15.5h1h0.8c0.1,0,0.2,0,0.3,0.1c0.3,0.1,0.5,0.4,0.5,0.7v10.7c0,0.4-0.3,0.7-0.7,0.7H5.5C5.1,26.8,4.7,26.5,4.7,26.1z M7.3,11
			c0-4.3,3.5-7.8,7.8-7.8l0,0c4.3,0,7.8,3.5,7.8,7.8v1.6H7.3V11L7.3,11z"/>
		<path d="M24.6,28.9H5.5c-1.6,0-2.8-1.3-2.8-2.8V15.4c0-0.7,0.3-1.4,0.7-1.9c0.5-0.5,1.1-0.8,1.8-0.9V11c0-1.3,0.3-2.6,0.8-3.8
			C6.5,6,7.2,4.9,8.1,4c0.9-0.9,2-1.6,3.1-2.1c1.2-0.5,2.5-0.8,3.8-0.8s2.6,0.3,3.8,0.8C20.1,2.4,21.1,3.1,22,4
			c0.9,0.9,1.6,2,2.1,3.1c0.5,1.2,0.8,2.5,0.8,3.8v1.6c0.7,0.1,1.3,0.4,1.8,0.9c0.5,0.5,0.7,1.2,0.7,1.9v10.7
			C27.4,27.6,26.2,28.9,24.6,28.9z M15,1.2c-1.3,0-2.6,0.3-3.8,0.8C10.1,2.4,9,3.1,8.1,4C7.2,4.9,6.5,6,6,7.2
			C5.5,8.4,5.2,9.7,5.2,11v1.7h0c-0.7,0.1-1.3,0.4-1.8,0.9C3,14,2.7,14.7,2.7,15.4v10.7c0,1.5,1.3,2.8,2.8,2.8h19.1
			c1.5,0,2.8-1.3,2.8-2.8V15.4c0-0.7-0.3-1.4-0.7-1.9c-0.5-0.5-1.1-0.8-1.8-0.9h0V11c0-1.3-0.3-2.6-0.8-3.8C23.6,6,22.9,4.9,22,4
			c-0.9-0.9-2-1.6-3.1-2.1C17.7,1.4,16.4,1.2,15,1.2z M24.6,26.8H5.5c-0.4,0-0.8-0.3-0.8-0.8V15.4c0-0.3,0.2-0.6,0.5-0.7
			c0.1,0,0.2-0.1,0.3-0.1h19.1c0.1,0,0.2,0,0.3,0.1c0.3,0.1,0.5,0.4,0.5,0.7v10.7C25.4,26.5,25,26.8,24.6,26.8z M5.5,14.7
			c-0.1,0-0.2,0-0.3,0.1c-0.3,0.1-0.4,0.4-0.4,0.7v10.7c0,0.4,0.3,0.7,0.7,0.7h19.1c0.4,0,0.7-0.3,0.7-0.7V15.4
			c0-0.3-0.2-0.6-0.4-0.7c-0.1,0-0.2-0.1-0.3-0.1L5.5,14.7L5.5,14.7z M22.8,12.6H7.3V11c0-4.3,3.5-7.8,7.8-7.8s7.8,3.5,7.8,7.8V12.6
			L22.8,12.6z M7.3,12.6h15.5V11c0-4.3-3.5-7.7-7.7-7.7S7.3,6.7,7.3,11V12.6L7.3,12.6z"/>
	</g>
</g>
</svg>
