<?xml version="1.0" encoding="utf-8"?>
<!-- Generator: Adobe Illustrator 25.0.1, SVG Export Plug-In . SVG Version: 6.00 Build 0)  -->
<svg version="1.1" id="Layer_1" xmlns="http://www.w3.org/2000/svg" xmlns:xlink="http://www.w3.org/1999/xlink" x="0px" y="0px"
	 viewBox="0 0 24 24" style="enable-background:new 0 0 24 24;" xml:space="preserve">
<path d="M12,12c2.7,0,4.8-2.2,4.8-4.8S14.7,2.3,12,2.3S7.2,4.5,7.2,7.2S9.3,12,12,12z M15.2,7.2c0,1.8-1.4,3.2-3.2,3.2
	S8.8,8.9,8.8,7.2s1.4-3.2,3.2-3.2S15.2,5.4,15.2,7.2z M21.7,20.1c0,1.6-1.6,1.6-1.6,1.6H3.9c0,0-1.6,0-1.6-1.6
	c0-1.6,1.6-6.5,9.7-6.5S21.7,18.5,21.7,20.1z M20.1,20.1c0-0.4-0.2-1.6-1.3-2.7c-1.1-1.1-3-2.1-6.7-2.1c-3.7,0-5.7,1.1-6.7,2.1
	c-1.1,1.1-1.3,2.3-1.3,2.7H20.1z"/>
</svg>
