<?xml version="1.0" encoding="utf-8"?>
<!-- Generator: Adobe Illustrator 25.0.1, SVG Export Plug-In . SVG Version: 6.00 Build 0)  -->
<svg version="1.1" id="Layer_1" xmlns="http://www.w3.org/2000/svg" xmlns:xlink="http://www.w3.org/1999/xlink" x="0px" y="0px"
	 viewBox="0 0 28.3 28.3" style="enable-background:new 0 0 28.3 28.3;" xml:space="preserve">
<style type="text/css">
	.st0{fill:#FFC960;}
</style>
<path id="XMLID_16_" class="st0" d="M27.4,11.1c-0.1-0.4-0.5-0.8-1-0.8l-7.7-1.1l-3.4-7c-0.2-0.4-0.6-0.7-1.1-0.7s-0.9,0.3-1.1,0.7
	l-3.4,7L2,10.3c-0.5,0.1-0.8,0.4-1,0.8c-0.1,0.4,0,0.9,0.3,1.2l5.6,5.4l-1.3,7.7c-0.1,0.5,0.1,0.9,0.5,1.2c0.2,0.2,0.5,0.2,0.7,0.2
	s0.4,0,0.6-0.1l6.9-3.6l6.9,3.6c0.2,0.1,0.4,0.1,0.6,0.1c0.7,0,1.2-0.5,1.2-1.2c0-0.1,0-0.2,0-0.3l-1.3-7.6l5.6-5.4
	C27.4,12,27.5,11.5,27.4,11.1z"/>
</svg>
