<svg width="143" height="33" viewBox="0 0 143 33" fill="none" xmlns="http://www.w3.org/2000/svg">
<path d="M26.8315 22.6034C26.8315 29.0084 22.0644 33 14.3464 33C8.80762 33 3.76821 31.1435 0 27.6624L4.35841 22.3249C7.40022 24.8776 10.8052 26.3629 14.6188 26.3629C17.5244 26.3629 19.0226 25.1561 19.0226 23.4388C19.0226 21.5359 17.5698 21.1181 13.0298 20.0042C6.35601 18.4726 1.4074 16.616 1.4074 10.211C1.4074 4.08439 6.21981 0 13.3476 0C18.5686 0 22.6546 1.53165 25.9689 4.36287L22.019 10.0253C19.1588 7.79747 16.0262 6.63713 13.1206 6.63713C10.6236 6.63713 9.21622 7.84388 9.21622 9.42194C9.21622 11.3713 10.7144 12.0211 15.3452 13.0422C22.3368 14.5738 26.8315 16.616 26.8315 22.6034Z" fill="white"/>
<path d="M39.0746 32.443H31.3112V0.556963H39.0746V32.443Z" fill="white"/>
<path d="M45.0997 32.443H52.8631V13.5992L66.4377 32.443H74.2011V0.556963H66.4377V19.4008L52.8631 0.556963H45.0997V32.443Z" fill="white"/>
<path d="M110.993 32.443H102.276L94.3867 11.7889L90.3865 21.9999H98.2458L95.2947 28.9619H87.659L86.2953 32.443H77.5785L89.9273 0.556963H98.6441L110.993 32.443Z" fill="white"/>
<path d="M128.517 33C137.053 33 143 27.0127 143 18.4726V0.556963H135.282V18.1013C135.282 22.6034 132.467 25.8059 128.517 25.8059C124.613 25.8059 121.798 22.6034 121.798 18.1013V0.556963H114.035V18.4726C114.035 27.0127 120.028 33 128.517 33Z" fill="white"/>
</svg>
