<svg width="51" height="40" viewBox="0 0 51 40" fill="none" xmlns="http://www.w3.org/2000/svg">
<path fill-rule="evenodd" clip-rule="evenodd" d="M19.0924 14.1758C19.952 13.3162 21.1178 12.8333 22.3333 12.8333H29.6667C30.8822 12.8333 32.048 13.3162 32.9076 14.1758C33.7671 15.0353 34.25 16.2011 34.25 17.4167V19.25C34.25 19.7563 33.8396 20.1667 33.3333 20.1667C32.8271 20.1667 32.4167 19.7563 32.4167 19.25V17.4167C32.4167 16.6873 32.1269 15.9879 31.6112 15.4721C31.0955 14.9564 30.396 14.6667 29.6667 14.6667H22.3333C21.604 14.6667 20.9045 14.9564 20.3888 15.4721C19.8731 15.9879 19.5833 16.6873 19.5833 17.4167V19.25C19.5833 19.7563 19.1729 20.1667 18.6667 20.1667C18.1604 20.1667 17.75 19.7563 17.75 19.25V17.4167C17.75 16.2011 18.2329 15.0353 19.0924 14.1758Z" fill="#FF8181"/>
<path fill-rule="evenodd" clip-rule="evenodd" d="M17.75 19.14C17.75 18.5325 18.2425 18.04 18.85 18.04H33.15C33.7575 18.04 34.25 18.5325 34.25 19.14C34.25 19.7475 33.7575 20.24 33.15 20.24H18.85C18.2425 20.24 17.75 19.7475 17.75 19.14Z" fill="#FF8181"/>
<path fill-rule="evenodd" clip-rule="evenodd" d="M26 3.66668C24.4812 3.66668 23.25 4.89789 23.25 6.41668C23.25 7.93546 24.4812 9.16668 26 9.16668C27.5187 9.16668 28.75 7.93546 28.75 6.41668C28.75 4.89789 27.5187 3.66668 26 3.66668ZM21.4166 6.41668C21.4166 3.88537 23.4687 1.83334 26 1.83334C28.5313 1.83334 30.5833 3.88537 30.5833 6.41668C30.5833 8.94798 28.5313 11 26 11C23.4687 11 21.4166 8.94798 21.4166 6.41668Z" fill="#FF8181"/>
<path d="M6.79805 37L9.37805 30H10.268L12.838 37H11.948L11.308 35.2H8.32805L7.67805 37H6.79805ZM8.57805 34.52H11.058L9.81805 31.06L8.57805 34.52ZM15.8352 37.12C15.3619 37.12 14.9352 37.0133 14.5552 36.8C14.1819 36.58 13.8852 36.2767 13.6652 35.89C13.4519 35.4967 13.3452 35.04 13.3452 34.52C13.3452 34 13.4519 33.5467 13.6652 33.16C13.8852 32.7667 14.1819 32.4633 14.5552 32.25C14.9352 32.03 15.3619 31.92 15.8352 31.92C16.4219 31.92 16.9152 32.0733 17.3152 32.38C17.7219 32.6867 17.9786 33.0967 18.0852 33.61H17.2252C17.1586 33.3033 16.9952 33.0667 16.7352 32.9C16.4752 32.7267 16.1719 32.64 15.8252 32.64C15.5452 32.64 15.2819 32.71 15.0352 32.85C14.7886 32.99 14.5886 33.2 14.4352 33.48C14.2819 33.76 14.2052 34.1067 14.2052 34.52C14.2052 34.9333 14.2819 35.28 14.4352 35.56C14.5886 35.84 14.7886 36.0533 15.0352 36.2C15.2819 36.34 15.5452 36.41 15.8252 36.41C16.1719 36.41 16.4752 36.3267 16.7352 36.16C16.9952 35.9867 17.1586 35.7433 17.2252 35.43H18.0852C17.9852 35.93 17.7319 36.3367 17.3252 36.65C16.9186 36.9633 16.4219 37.12 15.8352 37.12ZM21.5384 37.12C21.065 37.12 20.6384 37.0133 20.2584 36.8C19.885 36.58 19.5884 36.2767 19.3684 35.89C19.155 35.4967 19.0484 35.04 19.0484 34.52C19.0484 34 19.155 33.5467 19.3684 33.16C19.5884 32.7667 19.885 32.4633 20.2584 32.25C20.6384 32.03 21.065 31.92 21.5384 31.92C22.125 31.92 22.6184 32.0733 23.0184 32.38C23.425 32.6867 23.6817 33.0967 23.7884 33.61H22.9284C22.8617 33.3033 22.6984 33.0667 22.4384 32.9C22.1784 32.7267 21.875 32.64 21.5284 32.64C21.2484 32.64 20.985 32.71 20.7384 32.85C20.4917 32.99 20.2917 33.2 20.1384 33.48C19.985 33.76 19.9084 34.1067 19.9084 34.52C19.9084 34.9333 19.985 35.28 20.1384 35.56C20.2917 35.84 20.4917 36.0533 20.7384 36.2C20.985 36.34 21.2484 36.41 21.5284 36.41C21.875 36.41 22.1784 36.3267 22.4384 36.16C22.6984 35.9867 22.8617 35.7433 22.9284 35.43H23.7884C23.6884 35.93 23.435 36.3367 23.0284 36.65C22.6217 36.9633 22.125 37.12 21.5384 37.12ZM27.2215 37.12C26.7548 37.12 26.3348 37.0133 25.9615 36.8C25.5882 36.5867 25.2915 36.2867 25.0715 35.9C24.8582 35.5067 24.7515 35.0467 24.7515 34.52C24.7515 33.9933 24.8615 33.5367 25.0815 33.15C25.3015 32.7567 25.5982 32.4533 25.9715 32.24C26.3515 32.0267 26.7748 31.92 27.2415 31.92C27.7082 31.92 28.1282 32.0267 28.5015 32.24C28.8748 32.4533 29.1682 32.7567 29.3815 33.15C29.6015 33.5367 29.7115 33.9933 29.7115 34.52C29.7115 35.0467 29.6015 35.5067 29.3815 35.9C29.1615 36.2867 28.8615 36.5867 28.4815 36.8C28.1082 37.0133 27.6882 37.12 27.2215 37.12ZM27.2215 36.4C27.5082 36.4 27.7748 36.33 28.0215 36.19C28.2682 36.05 28.4682 35.84 28.6215 35.56C28.7748 35.28 28.8515 34.9333 28.8515 34.52C28.8515 34.1067 28.7748 33.76 28.6215 33.48C28.4748 33.2 28.2782 32.99 28.0315 32.85C27.7848 32.71 27.5215 32.64 27.2415 32.64C26.9548 32.64 26.6882 32.71 26.4415 32.85C26.1948 32.99 25.9948 33.2 25.8415 33.48C25.6882 33.76 25.6115 34.1067 25.6115 34.52C25.6115 34.9333 25.6882 35.28 25.8415 35.56C25.9948 35.84 26.1915 36.05 26.4315 36.19C26.6782 36.33 26.9415 36.4 27.2215 36.4ZM32.6895 37.12C32.1028 37.12 31.6361 36.9433 31.2895 36.59C30.9428 36.23 30.7695 35.68 30.7695 34.94V32.04H31.6095V34.85C31.6095 35.8833 32.0328 36.4 32.8795 36.4C33.3128 36.4 33.6695 36.2467 33.9495 35.94C34.2361 35.6267 34.3795 35.1833 34.3795 34.61V32.04H35.2195V37H34.4595L34.3995 36.11C34.2461 36.4233 34.0161 36.67 33.7095 36.85C33.4095 37.03 33.0695 37.12 32.6895 37.12ZM36.6021 37V32.04H37.3621L37.4121 32.93C37.5721 32.6167 37.8021 32.37 38.1021 32.19C38.4021 32.01 38.7421 31.92 39.1221 31.92C39.7088 31.92 40.1754 32.1 40.5221 32.46C40.8754 32.8133 41.0521 33.36 41.0521 34.1V37H40.2121V34.19C40.2121 33.1567 39.7854 32.64 38.9321 32.64C38.5054 32.64 38.1488 32.7967 37.8621 33.11C37.5821 33.4167 37.4421 33.8567 37.4421 34.43V37H36.6021ZM44.2848 37C43.8314 37 43.4748 36.89 43.2148 36.67C42.9548 36.45 42.8248 36.0533 42.8248 35.48V32.75H41.9648V32.04H42.8248L42.9348 30.85H43.6648V32.04H45.1248V32.75H43.6648V35.48C43.6648 35.7933 43.7281 36.0067 43.8548 36.12C43.9814 36.2267 44.2048 36.28 44.5248 36.28H45.0448V37H44.2848Z" fill="#FF8181"/>
</svg>
