<?xml version="1.0" encoding="utf-8"?>
<!-- Generator: Adobe Illustrator 25.0.1, SVG Export Plug-In . SVG Version: 6.00 Build 0)  -->
<svg version="1.1" id="Capa_1" xmlns="http://www.w3.org/2000/svg" xmlns:xlink="http://www.w3.org/1999/xlink" x="0px" y="0px"
	 viewBox="0 0 30 30" style="enable-background:new 0 0 30 30;" xml:space="preserve">
<g>
	<g>
		<path d="M28.7,27L20.6,19c1.6-1.9,2.5-4.3,2.5-7c0-6.1-5-11-11.1-11S0.9,5.9,0.9,12s5,11,11.1,11c2.6,0,5-0.9,6.9-2.4l8.1,8.1
			c0.5,0.5,1.2,0.5,1.6,0S29.2,27.5,28.7,27z M3.3,12c0-4.8,3.9-8.6,8.8-8.6s8.8,3.9,8.8,8.6s-3.9,8.6-8.8,8.6S3.3,16.7,3.3,12z"/>
	</g>
</g>
</svg>
